<svg width="357" height="357" viewBox="0 0 357 357" fill="none" xmlns="http://www.w3.org/2000/svg">
<g filter="url(#filter0_dii_2493_1289)">
<mask id="mask0_2493_1289" style="mask-type:alpha" maskUnits="userSpaceOnUse" x="43" y="27" width="281" height="281">
<rect x="43.5938" y="27.2461" width="280" height="280" rx="61.5762" fill="#14272C"/>
</mask>
<g mask="url(#mask0_2493_1289)">
<rect x="43.5938" y="27.2461" width="280" height="280" rx="140" fill="#00D95F"/>
<path d="M103.594 247.246L115.083 204.6C105.817 187.987 102.873 168.601 106.792 150C110.71 131.399 121.227 114.829 136.414 103.333C151.6 91.836 170.437 86.1831 189.468 87.4113C208.499 88.6394 226.447 96.6663 240.019 110.019C253.591 123.372 261.877 141.154 263.355 160.104C264.834 179.054 259.406 197.899 248.068 213.182C236.73 228.466 220.243 239.161 201.631 243.307C183.02 247.452 163.532 244.769 146.745 235.751L103.594 247.246ZM148.826 219.792L151.494 221.37C163.654 228.553 177.855 231.525 191.887 229.824C205.918 228.123 218.99 221.843 229.067 211.964C239.144 202.085 245.658 189.161 247.596 175.207C249.533 161.252 246.784 147.051 239.778 134.816C232.772 122.581 221.902 113 208.861 107.565C195.821 102.13 181.343 101.147 167.683 104.77C154.024 108.392 141.95 116.416 133.344 127.591C124.738 138.766 120.082 152.465 120.103 166.552C120.092 178.233 123.333 189.688 129.466 199.641L131.14 202.391L124.717 226.194L148.826 219.792Z" fill="white"/>
<path fill-rule="evenodd" clip-rule="evenodd" d="M213.595 177.503C212.03 176.245 210.198 175.36 208.239 174.915C206.279 174.469 204.244 174.476 202.287 174.933C199.347 176.15 197.447 180.748 195.547 183.048C195.147 183.599 194.558 183.985 193.892 184.135C193.226 184.284 192.527 184.186 191.929 183.859C181.165 179.657 172.143 171.952 166.327 161.995C165.831 161.374 165.597 160.585 165.673 159.794C165.748 159.004 166.129 158.274 166.734 157.757C168.853 155.667 170.409 153.078 171.258 150.229C171.446 147.087 170.724 143.957 169.177 141.213C167.981 137.366 165.705 133.94 162.618 131.34C161.026 130.627 159.261 130.387 157.535 130.651C155.81 130.915 154.198 131.671 152.893 132.828C150.629 134.775 148.832 137.203 147.635 139.933C146.437 142.664 145.869 145.628 145.973 148.606C145.98 150.279 146.193 151.944 146.606 153.565C147.657 157.459 149.272 161.18 151.401 164.61C152.937 167.237 154.613 169.78 156.422 172.228C162.3 180.27 169.689 187.099 178.178 192.334C182.438 194.995 186.991 197.158 191.748 198.781C196.688 201.013 202.144 201.87 207.534 201.26C210.605 200.797 213.514 199.588 216.007 197.741C218.499 195.894 220.498 193.464 221.827 190.666C222.608 188.976 222.845 187.086 222.505 185.256C221.691 181.515 216.67 179.306 213.595 177.503Z" fill="white"/>
</g>
</g>
<defs>
<filter id="filter0_dii_2493_1289" x="0" y="0" width="356.289" height="356.289" filterUnits="userSpaceOnUse" color-interpolation-filters="sRGB">
<feFlood flood-opacity="0" result="BackgroundImageFix"/>
<feColorMatrix in="SourceAlpha" type="matrix" values="0 0 0 0 0 0 0 0 0 0 0 0 0 0 0 0 0 0 127 0" result="hardAlpha"/>
<feOffset dx="-5.44922" dy="10.8984"/>
<feGaussianBlur stdDeviation="19.0723"/>
<feComposite in2="hardAlpha" operator="out"/>
<feColorMatrix type="matrix" values="0 0 0 0 0.0904167 0 0 0 0 0.105917 0 0 0 0 0.129167 0 0 0 1 0"/>
<feBlend mode="normal" in2="BackgroundImageFix" result="effect1_dropShadow_2493_1289"/>
<feBlend mode="normal" in="SourceGraphic" in2="effect1_dropShadow_2493_1289" result="shape"/>
<feColorMatrix in="SourceAlpha" type="matrix" values="0 0 0 0 0 0 0 0 0 0 0 0 0 0 0 0 0 0 127 0" result="hardAlpha"/>
<feOffset dx="10.8984" dy="-10.8984"/>
<feGaussianBlur stdDeviation="8.17383"/>
<feComposite in2="hardAlpha" operator="arithmetic" k2="-1" k3="1"/>
<feColorMatrix type="matrix" values="0 0 0 0 0.003125 0 0 0 0 0.0666233 0 0 0 0 0.0833333 0 0 0 0.7 0"/>
<feBlend mode="normal" in2="shape" result="effect2_innerShadow_2493_1289"/>
<feColorMatrix in="SourceAlpha" type="matrix" values="0 0 0 0 0 0 0 0 0 0 0 0 0 0 0 0 0 0 127 0" result="hardAlpha"/>
<feOffset dx="-5.44922" dy="5.44922"/>
<feGaussianBlur stdDeviation="5.44922"/>
<feComposite in2="hardAlpha" operator="arithmetic" k2="-1" k3="1"/>
<feColorMatrix type="matrix" values="0 0 0 0 0 0 0 0 0 0.0692708 0 0 0 0 0.0875 0 0 0 0.9 0"/>
<feBlend mode="normal" in2="effect2_innerShadow_2493_1289" result="effect3_innerShadow_2493_1289"/>
</filter>
</defs>
</svg>
