<svg width="279" height="279" viewBox="0 0 279 279" fill="none" xmlns="http://www.w3.org/2000/svg">
<mask id="mask0_2352_66" style="mask-type:alpha" maskUnits="userSpaceOnUse" x="0" y="-10" width="279" height="279">
<rect y="-10" width="279" height="279" rx="61.5762" fill="#14272C"/>
</mask>
<g mask="url(#mask0_2352_66)">
<rect width="279" height="279" rx="61.5762" fill="#001E36"/>
</g>
<g clip-path="url(#clip0_2352_66)">
<path d="M68.9975 30.3601H200.283C220.187 30.3601 236.28 46.8657 236.28 67.2806V196.72C236.28 217.134 220.187 233.64 200.283 233.64H68.9975C49.093 233.64 33 217.134 33 196.72V67.2806C33 46.8657 49.093 30.3601 68.9975 30.3601Z" fill="#001E36"/>
<path d="M78.7373 172.917V83.5254C78.7373 82.9173 78.9914 82.5698 79.5843 82.5698C81.0242 82.5698 82.3794 82.5698 84.3275 82.4829C86.3603 82.3961 88.4778 82.3961 90.7647 82.3092C93.0516 82.2223 95.5079 82.2223 98.1336 82.1355C100.759 82.0486 103.3 82.0486 105.841 82.0486C112.787 82.0486 118.546 82.9173 123.29 84.7416C127.525 86.2184 131.421 88.6508 134.639 91.8651C137.35 94.645 139.467 98.033 140.822 101.768C142.093 105.417 142.771 109.153 142.771 113.062C142.771 120.533 141.076 126.701 137.688 131.566C134.3 136.43 129.557 140.079 124.052 142.164C118.292 144.336 111.94 145.118 104.994 145.118C102.962 145.118 101.606 145.118 100.759 145.031C99.9123 144.944 98.7265 144.944 97.1172 144.944V172.83C97.2019 173.438 96.7784 173.959 96.1855 174.046C96.1008 174.046 96.0161 174.046 95.8467 174.046H79.7537C79.0761 174.046 78.7373 173.698 78.7373 172.917ZM97.2019 99.3361V128.525C98.3877 128.612 99.4888 128.699 100.505 128.699H104.994C108.298 128.699 111.601 128.178 114.735 127.135C117.445 126.353 119.817 124.703 121.68 122.531C123.459 120.359 124.306 117.405 124.306 113.583C124.391 110.89 123.713 108.197 122.358 105.851C120.918 103.593 118.885 101.855 116.429 100.9C113.295 99.5967 109.907 99.0755 106.434 99.1623C104.232 99.1623 102.284 99.1623 100.675 99.2492C98.9806 99.1623 97.7948 99.2492 97.2019 99.3361Z" fill="#31A8FF"/>
<path d="M195.623 123.226C193.082 121.836 190.371 120.881 187.492 120.273C184.358 119.578 181.224 119.143 178.005 119.143C176.311 119.056 174.533 119.317 172.923 119.751C171.822 120.012 170.89 120.62 170.298 121.489C169.874 122.184 169.62 123.053 169.62 123.834C169.62 124.616 169.959 125.398 170.467 126.093C171.229 127.049 172.246 127.83 173.347 128.439C175.295 129.481 177.328 130.437 179.36 131.305C183.934 132.869 188.339 135.041 192.404 137.647C195.199 139.471 197.486 141.904 199.096 144.857C200.451 147.637 201.128 150.678 201.044 153.805C201.128 157.888 199.943 161.971 197.74 165.359C195.369 168.834 192.065 171.527 188.254 173.091C184.104 174.915 179.022 175.871 172.923 175.871C169.027 175.871 165.216 175.523 161.404 174.741C158.44 174.22 155.475 173.264 152.765 171.961C152.172 171.614 151.748 171.006 151.833 170.311V155.195C151.833 154.934 151.918 154.587 152.172 154.413C152.426 154.24 152.68 154.326 152.934 154.5C156.237 156.498 159.71 157.888 163.437 158.757C166.655 159.626 170.043 160.06 173.431 160.06C176.65 160.06 178.937 159.626 180.462 158.844C181.817 158.236 182.748 156.759 182.748 155.195C182.748 153.979 182.071 152.85 180.716 151.72C179.36 150.591 176.565 149.288 172.415 147.637C168.095 146.074 164.114 143.989 160.388 141.382C157.762 139.471 155.56 136.952 153.95 133.998C152.595 131.218 151.918 128.178 152.002 125.137C152.002 121.402 153.019 117.84 154.882 114.626C157 111.151 160.134 108.371 163.776 106.634C167.757 104.549 172.754 103.593 178.768 103.593C182.24 103.593 185.798 103.854 189.27 104.375C191.811 104.723 194.268 105.418 196.555 106.373C196.893 106.46 197.232 106.808 197.402 107.155C197.486 107.502 197.571 107.85 197.571 108.197V122.358C197.571 122.705 197.402 123.053 197.147 123.226C196.385 123.4 195.962 123.4 195.623 123.226Z" fill="#31A8FF"/>
</g>
<defs>
<clipPath id="clip0_2352_66">
<rect x="33" y="33" width="212" height="212" rx="106" fill="white"/>
</clipPath>
</defs>
</svg>
