<svg width="279" height="279" viewBox="0 0 279 279" fill="none" xmlns="http://www.w3.org/2000/svg">
<mask id="mask0_2352_50" style="mask-type:alpha" maskUnits="userSpaceOnUse" x="0" y="0" width="279" height="279">
<rect width="279" height="279" rx="61.5762" fill="#14272C"/>
</mask>
<g mask="url(#mask0_2352_50)">
<path d="M0 98.5219C0 64.036 0 46.793 6.7114 33.6212C12.6149 22.0349 22.0349 12.6149 33.6212 6.7114C46.793 0 64.036 0 98.5219 0H180.478C214.964 0 232.207 0 245.379 6.7114C256.965 12.6149 266.385 22.0349 272.289 33.6212C279 46.793 279 64.036 279 98.5219V180.478C279 214.964 279 232.207 272.289 245.379C266.385 256.965 256.965 266.385 245.379 272.289C232.207 279 214.964 279 180.478 279H98.5219C64.036 279 46.793 279 33.6212 272.289C22.0349 266.385 12.6149 256.965 6.7114 245.379C0 232.207 0 214.964 0 180.478V98.5219Z" fill="#330000"/>
</g>
<g clip-path="url(#clip0_2352_50)">
<path d="M71.5043 33H211.932C233.222 33 250.436 50.2137 250.436 71.5043V206.496C250.436 227.786 233.222 245 211.932 245H71.5043C50.2137 245 33 227.786 33 206.496V71.5043C33 50.2137 50.2137 33 71.5043 33Z" fill="#330000"/>
<path d="M138.094 159.837H104.392L97.5061 181.128C97.3249 181.943 96.6001 182.487 95.7847 182.396H78.7522C77.7557 182.396 77.4839 181.853 77.7557 180.766L106.928 96.781C107.2 95.875 107.472 94.8784 107.834 93.7912C108.197 91.8887 108.378 89.8955 108.378 87.9023C108.287 87.4494 108.65 86.9964 109.103 86.9058H109.374H132.568C133.292 86.9058 133.655 87.1776 133.745 87.6305L166.814 180.947C167.086 181.943 166.814 182.396 165.908 182.396H146.973C146.339 182.487 145.704 182.034 145.523 181.4L138.094 159.837V159.837ZM109.646 141.446H132.658C132.115 139.543 131.39 137.278 130.574 134.923C129.759 132.477 128.944 129.849 128.128 127.131C127.222 124.323 126.407 121.605 125.501 118.796C124.595 115.988 123.78 113.36 123.055 110.733C122.33 108.196 121.696 105.841 121.062 103.666H120.88C120.065 107.562 119.068 111.458 117.8 115.354C116.441 119.702 115.082 124.232 113.633 128.762C112.364 133.383 111.005 137.641 109.646 141.446V141.446Z" fill="#FF9A00"/>
<path d="M187.017 102.761C184.027 102.851 181.128 101.673 178.953 99.5897C176.87 97.3248 175.783 94.335 175.873 91.2547C175.783 88.1744 176.96 85.2752 179.135 83.1914C181.309 81.1077 184.208 80.0205 187.198 80.0205C190.731 80.0205 193.449 81.1077 195.442 83.1914C197.436 85.3658 198.523 88.265 198.432 91.2547C198.523 94.335 197.436 97.3248 195.261 99.5897C193.177 101.764 190.097 102.942 187.017 102.761ZM176.87 181.4V111.639C176.87 110.733 177.232 110.371 178.048 110.371H195.986C196.801 110.371 197.164 110.824 197.164 111.639V181.4C197.164 182.397 196.801 182.85 195.986 182.85H178.229C177.323 182.85 176.87 182.306 176.87 181.4V181.4Z" fill="#FF9A00"/>
</g>
<defs>
<clipPath id="clip0_2352_50">
<rect x="33" y="33" width="212" height="212" rx="106" fill="white"/>
</clipPath>
</defs>
</svg>
